<?xml version="1.0" encoding="UTF-8"?>
<svg width="700pt" height="700pt" version="1.1" viewBox="99 248 505 11" xmlns="http://www.w3.org/2000/svg" xmlns:xlink="http://www.w3.org/1999/xlink">
<!-- Some great SVG resoures; specifically for the viewBox attribute:
https://www.youtube.com/watch?v=ciMsVVyv3Og
https://wattenberger.com/guide/scaling-svg
https://www.sarasoueidan.com/demos/interactive-svg-coordinate-system/index.html
https://codepen.io/designcourse/live/mdydjBa
 -->
 <g>
  <path d="m600.73 354.81h-1.7266v-7.3516h-9.0312v4.6992h-8.8555v-3.8711l12.73-8.2422c1.1523-0.44141 1.9258-1.5625 1.9258-2.793 0-1.2656-0.80469-2.375-1.9805-2.8008-0.023437-0.023438-0.035156-0.023438-0.042969-0.023438l-1.0625-0.65625c1.1094-0.29297 1.9219-1.2773 1.9219-2.4648 0-1.4062-1.1484-2.5547-2.5703-2.5547-0.73438 0-1.4297 0.32031-1.9023 0.85547-0.47656-0.54297-1.1641-0.85547-1.9141-0.85547-0.73437 0-1.4297 0.32031-1.9023 0.85547-0.48828-0.54297-1.1719-0.85547-1.9102-0.85547-0.73437 0-1.4375 0.32031-1.9141 0.85547-0.47656-0.54297-1.1797-0.85547-1.9141-0.85547-0.44141 0-0.875 0.12891-1.2617 0.34766l-1.8438-4.2266c-0.15625-0.37891-0.53906-0.62891-0.94141-0.62891h-5.4922c-0.58203 0-1.043 0.47656-1.043 1.0469v3.6328c-0.28516-0.09375-0.57812-0.16797-0.875-0.16797-1.418 0-2.5664 1.1484-2.5664 2.5547 0 1.0938 0.69531 2.0234 1.668 2.375l-1.2266 0.75c-1.2031 0.42578-2.0156 1.5586-2.0156 2.8242 0 1.2031 0.71875 2.2773 1.793 2.7383l3.2188 2.0781v10.09h-2.7656v-3.6172h-6.1445l-0.003906-70.066-22.395 15.883v10.129h-6.4961v5.4102h-9.3867v3.9766h-4.3281v28.887h-4.3359v-19.863h-6.8594v-37.191h-6.1445v-25.277h-0.72266v25.277h-6.8672v57.055h-2.1523v-21.312h-7.9414v-22.02h-8.6562v33.215h-4.3398v7.957h-5.3359c-2.0234-8.8867-3.7227-21.941-3.7227-40.785 0-36.715 2.793-42.039 3.9609-42.668h-1.8945l6.1836-11.355-12.371-11-1.3711-41.281h-0.066406l-1.3711 41.281-12.387 11 6.1992 11.355h-1.9141c1.1797 0.62109 3.9688 5.9531 3.9688 42.668 0 24.465-2.8555 39.176-5.5703 47.641h-7.1641v4.6992h-11.473l-2.9453-9.3516c11.934-3.2422 20.727-14.18 20.727-27.125 0-15.508-12.629-28.125-28.125-28.125-15.512 0-28.129 12.621-28.129 28.125 0 12.758 8.5352 23.555 20.195 26.988l-2.9336 9.4883h-5.2266v-2.1719h-3.9766v-6.8594l-8.3125-0.011718v6.8594h-5.4375c-1.0742-2.2344-2.0508-4.5742-2.9414-7.0391h1.625v-2.8633h-2.6133c-0.89453-2.7891-1.6953-5.6797-2.3984-8.5977h1.0234v-2.8516h-1.6875c-3.0859-14.117-4.0664-28.578-4.3516-37.105h2.2734v-2.0039h-0.74609v-0.58203h-1.6172c-0.066406-3.1094-0.042968-4.957-0.042968-5.0586l-0.054688-0.32422h-0.64453l0.011719 0.32422c0 0.10547 0.023437 1.9531-0.054688 5.0586h-1.6016v0.58203h-0.75781v2.0039h2.2773c-0.30859 8.5273-1.2695 22.988-4.3555 37.105h-1.6953v2.8516h1.043c-0.69922 2.918-1.5078 5.8086-2.4141 8.5977h-2.5977v2.8633h1.625c-1.1328 3.1211-2.4023 6.0938-3.8516 8.8477h-4.6719v-5.7695h-6.1484v-35.039h-11.109v-24.602h-0.011719l-7.5664-37.945v-23.398h-1.4492v23.398l-7.5781 37.945h-0.011719v44.453h-2.9688v13.012h-8.3086v-31.773h-1.4375v-3.9688h-7.9414v3.9688h-7.5938v19.863h-7.4141v-18.297h-0.023438l-13.719-11.688h-0.30078l-9.9453 8.4883v-22.203h-4.7031v-3.9648h-11.195v3.9648h-5.9648v-4.3359h-10.82v4.3359h-5.9648v-3.9648h-10.461v3.9648h-6.5078v19.863h-10.824v19.383l-6.6133-6.7539h-0.17188l-7.2734 7.4375v-34.508h-3.793v-3.5273h-1.8945v-3.5039h-2.293v-7.3203h-0.82422v7.3203h-2.2969v3.5039h-1.8945v3.5273h-3.8008v49.293l-25.234-25.211-37.078 37.078-0.34766-0.003906 0.015625 11.672h501.46v-11.672zm-184.45-35.082c0.039063 0 0.085938-0.015624 0.125-0.015624l7.9453 19.523c-2.5312 0.92578-5.2461 1.4375-8.0703 1.5zm1.5586-0.55078c0.066406-0.035156 0.12891-0.074219 0.19531-0.10156l14.863 14.863c-2.082 1.9414-4.4844 3.5508-7.1289 4.7109zm1.957-2.9531h21.012c-0.054687 2.957-0.62891 5.7617-1.6367 8.3945l-19.387-8.1914c0.011719-0.070312 0.011719-0.13281 0.011719-0.20312zm-0.078126-1.5312c-0.011718-0.050781-0.023437-0.078125-0.035156-0.10156l19.465-7.9297c0.96484 2.5078 1.5469 5.2031 1.6562 8.0312zm-1.9609-2.5625h-0.011719l8.1719-19.359c2.4922 1.1133 4.7812 2.6055 6.7656 4.4336zm-1.4766-0.48828v-21.012c2.8945 0.0625 5.6406 0.60547 8.2031 1.5625zm-1.5352-0.10156-7.8438-19.281c2.4453-0.94531 5.0898-1.4961 7.8438-1.6055zm-1.3789 0.6875-14.785-14.773c2.0156-1.8945 4.3398-3.4727 6.8867-4.6133zm-22.641 2.4648c0.11328-2.8672 0.70703-5.6055 1.707-8.1406l19.285 8.1406zm20.859 1.5312-19.414 7.9023c-0.89063-2.4805-1.3984-5.1289-1.4688-7.9023zm1.6172 2.6289c0.011718 0 0.023437 0.011719 0.035156 0.027344l-8.2109 19.441c-2.4648-1.1719-4.7227-2.7539-6.668-4.6484zm1.4062 0.73047c0.035156 0.011719 0.089843 0.027344 0.12891 0.039063v21.102c-2.918-0.11719-5.7188-0.75-8.3008-1.7734zm19.379 13.27-14.844-14.852c0.035156-0.050781 0.054687-0.09375 0.074218-0.14453l19.363 8.1797c-1.1562 2.5156-2.7148 4.8242-4.5938 6.8164zm4.5586-27.594-19.531 7.9453c-0.035157-0.027344-0.054688-0.050781-0.066407-0.085937l14.824-14.828c1.9648 2.0156 3.5781 4.3633 4.7734 6.9688zm-41.043-6.7109 14.695 14.688-19.168-8.082c1.1328-2.4453 2.6445-4.6719 4.4727-6.6055zm-4.7656 27.008 19.465-7.9258c0 0.015625 0.011718 0.027344 0.011718 0.042969l-14.93 14.918c-1.8867-2.0625-3.4336-4.4336-4.5469-7.0352zm179.33 0.75781h3.7812l1.0703 2.4531c-0.054687 0-0.10156-0.015625-0.16406-0.015625-0.72656 0-1.4297 0.32031-1.9023 0.85547-0.47656-0.54297-1.1719-0.85547-1.9141-0.85547-0.30078 0-0.58203 0.078125-0.86719 0.15625zm0 17.078 6.9766 4.5039v4.2617h-6.9766zm-202.09-28.66 1.6445 13.059h-3.2891zm-1.4336 16.527h2.8555l2.582 8.9336h-8.0039zm1.4336 16.039c2.4922 0 4.7773 1.2422 6.5859 3.3281v4.1953h-7.9453l-0.003906-3.0273h-6.1367c1.9141-2.7852 4.5703-4.4961 7.5-4.4961z"/>
  <path d="m445.87 257.15h0.5c-0.30469-0.16406-0.5 0-0.5 0z"/>
  <path d="m465.36 257.15h0.51562c-0.003906 0-0.20312-0.16406-0.51562 0z"/>
  <use x="70" y="644" xlink:href="#x"/>
  <use x="90.550781" y="644" xlink:href="#c"/>
  <use x="104.359375" y="644" xlink:href="#a"/>
  <use x="123.347656" y="644" xlink:href="#f"/>
  <use x="142.242188" y="644" xlink:href="#b"/>
  <use x="155.628906" y="644" xlink:href="#a"/>
  <use x="174.617188" y="644" xlink:href="#j"/>
  <use x="204.410156" y="644" xlink:href="#i"/>
  <use x="224.453125" y="644" xlink:href="#h"/>
  <use x="252.453125" y="644" xlink:href="#g"/>
  <use x="273.792969" y="644" xlink:href="#e"/>
  <use x="283.390625" y="644" xlink:href="#f"/>
  <use x="302.285156" y="644" xlink:href="#w"/>
  <use x="311.882812" y="644" xlink:href="#v"/>
  <use x="328.546875" y="644" xlink:href="#a"/>
  <use x="357.289062" y="644" xlink:href="#u"/>
  <use x="377.453125" y="644" xlink:href="#a"/>
  <use x="396.445312" y="644" xlink:href="#t"/>
  <use x="422.3125" y="644" xlink:href="#a"/>
  <use x="441.300781" y="644" xlink:href="#e"/>
  <use x="450.898438" y="644" xlink:href="#e"/>
  <use x="70" y="672" xlink:href="#s"/>
  <use x="82.183594" y="672" xlink:href="#c"/>
  <use x="95.992188" y="672" xlink:href="#d"/>
  <use x="115.226562" y="672" xlink:href="#r"/>
  <use x="154.152344" y="672" xlink:href="#b"/>
  <use x="167.535156" y="672" xlink:href="#q"/>
  <use x="187.46875" y="672" xlink:href="#a"/>
  <use x="216.207031" y="672" xlink:href="#p"/>
  <use x="239.640625" y="672" xlink:href="#d"/>
  <use x="258.878906" y="672" xlink:href="#o"/>
  <use x="278.8125" y="672" xlink:href="#n"/>
  <use x="308.492188" y="672" xlink:href="#m"/>
  <use x="329.015625" y="672" xlink:href="#c"/>
  <use x="342.820312" y="672" xlink:href="#d"/>
  <use x="362.058594" y="672" xlink:href="#l"/>
  <use x="371.65625" y="672" xlink:href="#a"/>
  <use x="390.648438" y="672" xlink:href="#k"/>
  <use x="407.242188" y="672" xlink:href="#b"/>
 </g>
</svg>
